<?xml version="1.0" encoding="UTF-8"?>
<svg id="_レイヤー_2" data-name="レイヤー_2" xmlns="http://www.w3.org/2000/svg" viewBox="0 0 110.15 88.19">
  <g id="_レイヤー_1-2" data-name="レイヤー_1">
    <g>
      <path d="M37.95,47.43c-.02-.16-.09-.3-.19-.43-.09-.14-.21-.24-.35-.32-.13-.1-.28-.16-.45-.18-.11,0-.22,0-.33,0-.22.02-.41.1-.59.23-.08.07-.15.14-.23.22-.14.17-.23.37-.27.59l-.03.21c-.03.17-.02.33.03.49.02.16.09.3.19.43.09.14.21.24.35.32.13.1.28.16.45.18.11,0,.22,0,.33,0,.22-.02.41-.1.59-.23.08-.07.15-.14.23-.22.14-.17.23-.37.27-.59l.03-.21c.03-.17.02-.33-.03-.49Z"/>
      <path d="M75.71,45.43c-.13-.09-.28-.14-.45-.15-.16-.02-.32,0-.47.05-.16.03-.31.1-.44.21-.08.08-.15.16-.23.24-.13.18-.2.37-.23.59,0,.11,0,.21,0,.32.03.22.12.42.26.59l.13.17c.1.14.23.24.38.31.13.09.28.14.45.15.16.02.32,0,.47-.05.16-.03.31-.1.44-.21.08-.08.15-.16.23-.24.13-.18.2-.37.23-.59,0-.11,0-.21,0-.32-.03-.22-.12-.42-.26-.59l-.13-.17c-.1-.14-.23-.24-.38-.31Z"/>
      <path d="M110.15,84.02c-1.18-22.11-6.09-44.01-14.53-64.49-2.48-6.01-5.27-11.89-8.33-17.62-.36-.68-1.18-1.08-1.88-.56-8.67,6.5-16.04,14.5-21.89,23.6-7.12-.73-14.3-.77-21.44-.13C37.74,15.78,31.63,7.68,24.1,1.05c-.17-.15-.36-.23-.54-.27-.29-.27-.61-.51-.96-.68-.15-.08-.32-.11-.48-.1-.16-.02-.32,0-.48.07-.15.05-.29.14-.39.26-.13.1-.22.23-.29.38-.07.18-.1.38-.09.58-.1.1-.2.19-.27.33C10.65,21.63,4.1,43.31,1.33,65.48c-.7,5.6-1.11,11.23-1.33,16.88.09.21.14.43.13.67-.06,1.07-.05,2.15,0,3.23.19.1.41.17.68.14,27.91-2.2,55.98-2.34,83.91-.38,7.81.55,15.61,1.27,23.39,2.14.15.02.28,0,.4-.03.23.02.47.04.7.05.11,0,.21,0,.32-.02.19-1.38.4-2.77.62-4.15ZM9.74,68.59c.08-.67.78-1.13,1.42-1.02.38.06.76.11,1.15.14.11,0,.22.01.33.02,0,0,0,0,0,0,.19,0,.39,0,.58-.01.4-.02.8-.07,1.19-.15.07-.01.15-.02.22-.05.05-.01.11-.03.16-.05.21-.06.41-.13.62-.2.65-.24,1.33.09,1.6.71.27.61-.1,1.38-.71,1.6-1.79.66-3.67.73-5.54.43-.69-.11-1.1-.75-1.02-1.42ZM16.99,75.49c-.78.55-1.66.98-2.56,1.28-.85.28-1.76.49-2.66.5-.7,0-1.26-.38-1.37-1.1-.05-.31.08-.68.28-.92.18-.22.53-.44.82-.44.37,0,.74-.04,1.11-.11.1-.02.19-.04.29-.06.01,0,.04,0,.06-.01.19-.05.38-.11.57-.17.41-.13.81-.29,1.19-.48.04-.02.08-.04.12-.06.02,0,.05-.03.08-.04.04-.02.08-.05.12-.07.17-.1.33-.21.5-.32.56-.4,1.31-.25,1.73.28.41.52.25,1.35-.28,1.73ZM17.99,63.8c-2.63-.42-5.28-.61-7.93-.82-.69-.05-1.1-.8-1.02-1.42.08-.7.78-1.07,1.42-1.02,2.65.2,5.31.4,7.93.82.69.11,1.1.75,1.02,1.42-.08.67-.78,1.13-1.42,1.02ZM28.8,48.88c-2.81-2.12-4.84-5.26-5.61-8.7,2.83-.61,5.66-.48,8.32.23-2.15,2.25-3.1,5.42-2.7,8.47ZM31.8,50.61c-1.47-3.12-.38-7.2,2.36-9.26,4.02,1.79,7.38,5.02,9.24,9.25-3.71,1.52-7.89,1.58-11.6.02ZM60.63,50.93c1.46-2.5,3.46-4.51,5.78-5.98.21,3.1,1.91,5.95,4.43,7.71-3.46.64-7.15.03-10.21-1.73ZM74.14,51.61c-3.3-1.02-5.57-4.58-5.24-7.99,4.03-1.76,8.68-2.06,13.06-.58-1.38,3.76-4.16,6.89-7.81,8.57ZM82.35,59.5c-.28-.64.12-1.32.71-1.6,2.64-1.26,5.6-1.53,8.46-1.99.68-.11,1.27.46,1.37,1.1.11.68-.46,1.26-1.1,1.37-1.38.22-2.76.4-4.13.66-1.23.24-2.46.58-3.7,1.17-.63.3-1.35-.13-1.6-.71ZM84.63,64.64c-.11-.71.47-1.23,1.1-1.37,2.45-.54,5.01-.38,7.48,0,.69.11,1.1.75,1.02,1.42-.08.67-.78,1.13-1.42,1.02-.56-.09-1.13-.17-1.7-.23-.29-.03-.58-.05-.87-.07-.17-.01-.34-.02-.5-.03-.06,0-.07,0-.08,0-.01,0-.03,0-.09,0-1.2-.01-2.39.08-3.56.34-.68.15-1.27-.49-1.37-1.1ZM92.53,72.32c-2.03.16-4-.38-6.02-.46-.69-.03-1.09-.82-1.02-1.42.08-.72.77-1.05,1.42-1.02.93.04,1.85.18,2.78.31.46.06.92.12,1.39.15.12,0,.24.01.36.02,0,0,0,0,0,0,.04,0,.08,0,.12,0,.24,0,.47-.01.71-.03.69-.05,1.26.42,1.37,1.1.1.65-.45,1.31-1.1,1.37Z"/>
    </g>
  </g>
</svg>